<svg width="24" height="24" viewBox="0 0 24 24" fill="none" xmlns="http://www.w3.org/2000/svg">
<path d="M19.2 7.12V6.68696L19.0177 6.79225C17.566 4.84243 15.3266 3.51549 12.7719 3.29096L12.5 3.26706V3.54V10.7V11.133L12.875 10.9165L18.8747 7.45219L19.2 7.91416V7.125V7.12ZM11.5 3.54V3.26713L11.2282 3.29095C6.76556 3.68214 3.25 7.43388 3.25 12C3.25 16.8231 7.17693 20.75 12 20.75C13.3183 20.75 14.5643 20.4512 15.6859 19.9264L15.9327 19.811L15.7965 19.575L11.5 12.133V3.54ZM16.6635 19.075L16.8004 19.312L17.024 19.1543C19.2721 17.5699 20.75 14.9554 20.75 12C20.75 10.6817 20.4512 9.43567 19.9264 8.31405L19.811 8.06722L19.575 8.20351L12.9 12.0585L12.6835 12.1835L12.8085 12.4L16.6635 19.075ZM2.25 12C2.25 6.62307 6.62307 2.25 12 2.25C17.3769 2.25 21.75 6.62307 21.75 12C21.75 17.3769 17.3769 21.75 12 21.75C6.62307 21.75 2.25 17.3769 2.25 12Z" fill="#9098A5" stroke="#9098A5" stroke-width="0.5"/>
</svg>
