<svg width="24" height="24" viewBox="0 0 24 24" fill="none" xmlns="http://www.w3.org/2000/svg">
<path d="M16.2499 6.5V6.75H16.4999H18.6556L21.7549 12.117V17.75C21.7549 18.3019 21.3068 18.75 20.7549 18.75H19.3999H19.2115L19.1596 18.931C18.8591 19.9782 17.8989 20.75 16.7549 20.75C15.6108 20.75 14.6507 19.9782 14.3502 18.931L14.2982 18.75H14.1099H9.39488H9.20653L9.15458 18.931C8.8541 19.9782 7.89395 20.75 6.74988 20.75C5.60582 20.75 4.64566 19.9782 4.34518 18.931L4.29323 18.75H4.10488H2.13197L2.25281 4.25H16.2499V6.5ZM18.1464 7.87503L18.0742 7.75H17.9299H16.4999H16.2499V8V11.5V11.75H16.4999H19.9499H20.3828L20.1664 11.375L18.1464 7.87503ZM3.14489 17.4979L3.14279 17.75H3.39488H3.76805H4.09988H4.10488V17.5014L4.34018 17.569C4.64066 16.5218 5.60082 15.75 6.74488 15.75C7.88895 15.75 8.8491 16.5218 9.14958 17.569L9.20153 17.75H9.38988H14.1049H14.2937L14.3453 17.5684C14.4864 17.0726 14.7727 16.6409 15.1588 16.323L15.2499 16.248V16.13V5.5V5.25H14.9999H3.49488H3.24696L3.24489 5.49792L3.14489 17.4979ZM19.1546 17.569L19.2065 17.75H19.3949H20.4999H20.7499V17.5V13V12.75H20.4999H16.4999H16.2499V13V15.515V15.7982L16.5309 15.7631C16.5998 15.7545 16.6744 15.75 16.7499 15.75C17.8939 15.75 18.8541 16.5218 19.1546 17.569ZM5.24988 18.25C5.24988 19.0781 5.92181 19.75 6.74988 19.75C7.57795 19.75 8.24988 19.0781 8.24988 18.25C8.24988 17.4219 7.57795 16.75 6.74988 16.75C5.92181 16.75 5.24988 17.4219 5.24988 18.25ZM15.2499 18.25C15.2499 19.0781 15.9218 19.75 16.7499 19.75C17.578 19.75 18.2499 19.0781 18.2499 18.25C18.2499 17.4219 17.578 16.75 16.7499 16.75C15.9218 16.75 15.2499 17.4219 15.2499 18.25Z" fill="#9098A5" stroke="#9098A5" stroke-width="0.5"/>
</svg>
