<svg width="24" height="24" viewBox="0 0 24 24" fill="none" xmlns="http://www.w3.org/2000/svg">
<path fill-rule="evenodd" clip-rule="evenodd" d="M18.5 2C19.435 2 20.315 2.365 20.975 3.025C21.635 3.685 22 4.565 22 5.5C22 6.435 21.635 7.315 20.975 7.975L7.80503 21.145L2.87503 21.99C2.83503 22 2.79003 22 2.75003 22C2.55503 22 2.36003 21.92 2.22003 21.78C2.04503 21.61 1.97003 21.365 2.01003 21.125L2.85503 16.195L16.025 3.025C16.685 2.365 17.565 2 18.5 2ZM3.67003 20.33L7.08503 19.745L16.385 10.445L13.555 7.615L4.25503 16.915L3.67003 20.33ZM14.615 6.555L17.445 9.385L19.915 6.915C20.29 6.535 20.5 6.035 20.5 5.5C20.5 4.965 20.295 4.465 19.915 4.085C19.155 3.33 17.84 3.33 17.085 4.085L14.615 6.555ZM11 20.5H20V22H11V20.5Z" fill="#B4B9C3"/>
</svg>
