<svg width="24" height="24" viewBox="0 0 24 24" fill="none" xmlns="http://www.w3.org/2000/svg">
<mask id="path-1-inside-1_0_19967" fill="white">
<path fill-rule="evenodd" clip-rule="evenodd" d="M4.5 4V17H22V4H4.5ZM20.5 7.395C19.585 7.135 18.865 6.415 18.605 5.5H20.5V7.395ZM17.07 15.5H9.43C9.12 13.76 7.745 12.385 6 12.07V8.93C7.74 8.62 9.115 7.245 9.43 5.5H17.07C17.38 7.24 18.755 8.615 20.5 8.93V12.07C18.76 12.38 17.385 13.755 17.07 15.5ZM7.895 5.5C7.635 6.415 6.915 7.135 6 7.395V5.5H7.895ZM6 13.605C6.915 13.865 7.635 14.585 7.895 15.5H6V13.605ZM18.605 15.5C18.865 14.585 19.585 13.865 20.5 13.605V15.5H18.605ZM3.5 7H2V20H19.5V18.5H3.5V7ZM10 10.5C10 8.71 11.46 7.25 13.25 7.25C15.04 7.25 16.5 8.71 16.5 10.5C16.5 12.29 15.04 13.75 13.25 13.75C11.46 13.75 10 12.29 10 10.5ZM11.5 10.5C11.5 11.465 12.285 12.25 13.25 12.25C14.215 12.25 15 11.465 15 10.5C15 9.535 14.215 8.75 13.25 8.75C12.285 8.75 11.5 9.535 11.5 10.5Z"/>
</mask>
<path fill-rule="evenodd" clip-rule="evenodd" d="M4.5 4V17H22V4H4.5ZM20.5 7.395C19.585 7.135 18.865 6.415 18.605 5.5H20.5V7.395ZM17.07 15.5H9.43C9.12 13.76 7.745 12.385 6 12.07V8.93C7.74 8.62 9.115 7.245 9.43 5.5H17.07C17.38 7.24 18.755 8.615 20.5 8.93V12.07C18.76 12.38 17.385 13.755 17.07 15.5ZM7.895 5.5C7.635 6.415 6.915 7.135 6 7.395V5.5H7.895ZM6 13.605C6.915 13.865 7.635 14.585 7.895 15.5H6V13.605ZM18.605 15.5C18.865 14.585 19.585 13.865 20.5 13.605V15.5H18.605ZM3.5 7H2V20H19.5V18.5H3.5V7ZM10 10.5C10 8.71 11.46 7.25 13.25 7.25C15.04 7.25 16.5 8.71 16.5 10.5C16.5 12.29 15.04 13.75 13.25 13.75C11.46 13.75 10 12.29 10 10.5ZM11.5 10.5C11.5 11.465 12.285 12.25 13.25 12.25C14.215 12.25 15 11.465 15 10.5C15 9.535 14.215 8.75 13.25 8.75C12.285 8.75 11.5 9.535 11.5 10.5Z" fill="#9098A5"/>
<path d="M4.5 17H4V17.5H4.5V17ZM4.5 4V3.5H4V4H4.5ZM22 17V17.5H22.5V17H22ZM22 4H22.5V3.5H22V4ZM18.605 5.5V5H17.9431L18.124 5.63667L18.605 5.5ZM20.5 7.395L20.3633 7.87596L21 8.05687V7.395H20.5ZM20.5 5.5H21V5H20.5V5.5ZM9.43 15.5L8.93775 15.5877L9.01121 16H9.43V15.5ZM17.07 15.5V16H17.4878L17.562 15.5888L17.07 15.5ZM6 12.07H5.5V12.4878L5.91118 12.562L6 12.07ZM6 8.93L5.9123 8.43775L5.5 8.51121V8.93H6ZM9.43 5.5V5H9.01218L8.93795 5.41118L9.43 5.5ZM17.07 5.5L17.5622 5.4123L17.4888 5H17.07V5.5ZM20.5 8.93H21V8.51218L20.5888 8.43795L20.5 8.93ZM20.5 12.07L20.5877 12.5622L21 12.4888V12.07H20.5ZM6 7.395H5.5V8.05687L6.13667 7.87596L6 7.395ZM7.895 5.5L8.37596 5.63667L8.55687 5H7.895V5.5ZM6 5.5V5H5.5V5.5H6ZM7.895 15.5V16H8.55687L8.37596 15.3633L7.895 15.5ZM6 13.605L6.13667 13.124L5.5 12.9431V13.605H6ZM6 15.5H5.5V16H6V15.5ZM20.5 13.605H21V12.9431L20.3633 13.124L20.5 13.605ZM18.605 15.5L18.124 15.3633L17.9431 16H18.605V15.5ZM20.5 15.5V16H21V15.5H20.5ZM2 7V6.5H1.5V7H2ZM3.5 7H4V6.5H3.5V7ZM2 20H1.5V20.5H2V20ZM19.5 20V20.5H20V20H19.5ZM19.5 18.5H20V18H19.5V18.5ZM3.5 18.5H3V19H3.5V18.5ZM5 17V4H4V17H5ZM22 16.5H4.5V17.5H22V16.5ZM21.5 4V17H22.5V4H21.5ZM4.5 4.5H22V3.5H4.5V4.5ZM18.124 5.63667C18.4314 6.71833 19.2817 7.5686 20.3633 7.87596L20.6367 6.91404C19.8883 6.7014 19.2986 6.11167 19.086 5.36333L18.124 5.63667ZM20.5 5H18.605V6H20.5V5ZM21 7.395V5.5H20V7.395H21ZM9.43 16H17.07V15H9.43V16ZM5.91118 12.562C7.45129 12.8401 8.6646 14.0545 8.93775 15.5877L9.92225 15.4123C9.57541 13.4655 8.03871 11.9299 6.08882 11.578L5.91118 12.562ZM5.5 8.93V12.07H6.5V8.93H5.5ZM8.93795 5.41118C8.65994 6.95129 7.4455 8.1646 5.9123 8.43775L6.0877 9.42225C8.0345 9.07541 9.57006 7.53871 9.92205 5.58882L8.93795 5.41118ZM17.07 5H9.43V6H17.07V5ZM20.5888 8.43795C19.0487 8.15994 17.8354 6.9455 17.5622 5.4123L16.5778 5.5877C16.9246 7.5345 18.4613 9.07006 20.4112 9.42205L20.5888 8.43795ZM21 12.07V8.93H20V12.07H21ZM17.562 15.5888C17.8401 14.0487 19.0545 12.8354 20.5877 12.5622L20.4123 11.5778C18.4655 11.9246 16.9299 13.4613 16.578 15.4112L17.562 15.5888ZM6.13667 7.87596C7.21833 7.5686 8.0686 6.71833 8.37596 5.63667L7.41404 5.36333C7.2014 6.11167 6.61167 6.7014 5.86333 6.91404L6.13667 7.87596ZM5.5 5.5V7.395H6.5V5.5H5.5ZM7.895 5H6V6H7.895V5ZM8.37596 15.3633C8.0686 14.2817 7.21833 13.4314 6.13667 13.124L5.86333 14.086C6.61167 14.2986 7.2014 14.8883 7.41404 15.6367L8.37596 15.3633ZM6 16H7.895V15H6V16ZM5.5 13.605V15.5H6.5V13.605H5.5ZM20.3633 13.124C19.2817 13.4314 18.4314 14.2817 18.124 15.3633L19.086 15.6367C19.2986 14.8883 19.8883 14.2986 20.6367 14.086L20.3633 13.124ZM21 15.5V13.605H20V15.5H21ZM18.605 16H20.5V15H18.605V16ZM2 7.5H3.5V6.5H2V7.5ZM2.5 20V7H1.5V20H2.5ZM19.5 19.5H2V20.5H19.5V19.5ZM19 18.5V20H20V18.5H19ZM3.5 19H19.5V18H3.5V19ZM3 7V18.5H4V7H3ZM13.25 6.75C11.1839 6.75 9.5 8.43386 9.5 10.5H10.5C10.5 8.98614 11.7361 7.75 13.25 7.75V6.75ZM17 10.5C17 8.43386 15.3161 6.75 13.25 6.75V7.75C14.7639 7.75 16 8.98614 16 10.5H17ZM13.25 14.25C15.3161 14.25 17 12.5661 17 10.5H16C16 12.0139 14.7639 13.25 13.25 13.25V14.25ZM9.5 10.5C9.5 12.5661 11.1839 14.25 13.25 14.25V13.25C11.7361 13.25 10.5 12.0139 10.5 10.5H9.5ZM13.25 11.75C12.5611 11.75 12 11.1889 12 10.5H11C11 11.7411 12.0089 12.75 13.25 12.75V11.75ZM14.5 10.5C14.5 11.1889 13.9389 11.75 13.25 11.75V12.75C14.4911 12.75 15.5 11.7411 15.5 10.5H14.5ZM13.25 9.25C13.9389 9.25 14.5 9.81114 14.5 10.5H15.5C15.5 9.25886 14.4911 8.25 13.25 8.25V9.25ZM12 10.5C12 9.81114 12.5611 9.25 13.25 9.25V8.25C12.0089 8.25 11 9.25886 11 10.5H12Z" fill="#9098A5" mask="url(#path-1-inside-1_0_19967)"/>
</svg>
