<svg width="24" height="24" viewBox="0 0 24 24" fill="none" xmlns="http://www.w3.org/2000/svg">
<mask id="path-1-inside-1_0_17114" fill="white">
<path fill-rule="evenodd" clip-rule="evenodd" d="M21 9H13V3H19.75C20.44 3 21 3.56 21 4.25V9ZM14.5 7.5H19.5V4.5H14.5V7.5ZM13 21H19.75C20.44 21 21 20.44 21 19.75V11H13V21ZM19.5 19.5H14.5V12.5H19.5V19.5ZM4.25 21H11V15H3V19.75C3 20.44 3.56 21 4.25 21ZM9.5 19.5H4.5V16.5H9.5V19.5ZM3 13H11V3H4.25C3.56 3 3 3.56 3 4.25V13ZM9.5 11.5H4.5V4.5H9.5V11.5Z"/>
</mask>
<path fill-rule="evenodd" clip-rule="evenodd" d="M21 9H13V3H19.75C20.44 3 21 3.56 21 4.25V9ZM14.5 7.5H19.5V4.5H14.5V7.5ZM13 21H19.75C20.44 21 21 20.44 21 19.75V11H13V21ZM19.5 19.5H14.5V12.5H19.5V19.5ZM4.25 21H11V15H3V19.75C3 20.44 3.56 21 4.25 21ZM9.5 19.5H4.5V16.5H9.5V19.5ZM3 13H11V3H4.25C3.56 3 3 3.56 3 4.25V13ZM9.5 11.5H4.5V4.5H9.5V11.5Z" fill="#9098A5"/>
<path d="M13 9H12.5V9.5H13V9ZM21 9V9.5H21.5V9H21ZM13 3V2.5H12.5V3H13ZM19.5 7.5V8H20V7.5H19.5ZM14.5 7.5H14V8H14.5V7.5ZM19.5 4.5H20V4H19.5V4.5ZM14.5 4.5V4H14V4.5H14.5ZM13 21H12.5V21.5H13V21ZM21 11H21.5V10.5H21V11ZM13 11V10.5H12.5V11H13ZM14.5 19.5H14V20H14.5V19.5ZM19.5 19.5V20H20V19.5H19.5ZM14.5 12.5V12H14V12.5H14.5ZM19.5 12.5H20V12H19.5V12.5ZM11 21V21.5H11.5V21H11ZM11 15H11.5V14.5H11V15ZM3 15V14.5H2.5V15H3ZM4.5 19.5H4V20H4.5V19.5ZM9.5 19.5V20H10V19.5H9.5ZM4.5 16.5V16H4V16.5H4.5ZM9.5 16.5H10V16H9.5V16.5ZM11 13V13.5H11.5V13H11ZM3 13H2.5V13.5H3V13ZM11 3H11.5V2.5H11V3ZM4.5 11.5H4V12H4.5V11.5ZM9.5 11.5V12H10V11.5H9.5ZM4.5 4.5V4H4V4.5H4.5ZM9.5 4.5H10V4H9.5V4.5ZM13 9.5H21V8.5H13V9.5ZM12.5 3V9H13.5V3H12.5ZM19.75 2.5H13V3.5H19.75V2.5ZM21.5 4.25C21.5 3.28386 20.7161 2.5 19.75 2.5V3.5C20.1639 3.5 20.5 3.83614 20.5 4.25H21.5ZM21.5 9V4.25H20.5V9H21.5ZM19.5 7H14.5V8H19.5V7ZM19 4.5V7.5H20V4.5H19ZM14.5 5H19.5V4H14.5V5ZM15 7.5V4.5H14V7.5H15ZM19.75 20.5H13V21.5H19.75V20.5ZM20.5 19.75C20.5 20.1639 20.1639 20.5 19.75 20.5V21.5C20.7161 21.5 21.5 20.7161 21.5 19.75H20.5ZM20.5 11V19.75H21.5V11H20.5ZM13 11.5H21V10.5H13V11.5ZM13.5 21V11H12.5V21H13.5ZM14.5 20H19.5V19H14.5V20ZM14 12.5V19.5H15V12.5H14ZM19.5 12H14.5V13H19.5V12ZM20 19.5V12.5H19V19.5H20ZM11 20.5H4.25V21.5H11V20.5ZM10.5 15V21H11.5V15H10.5ZM3 15.5H11V14.5H3V15.5ZM3.5 19.75V15H2.5V19.75H3.5ZM4.25 20.5C3.83614 20.5 3.5 20.1639 3.5 19.75H2.5C2.5 20.7161 3.28386 21.5 4.25 21.5V20.5ZM4.5 20H9.5V19H4.5V20ZM4 16.5V19.5H5V16.5H4ZM9.5 16H4.5V17H9.5V16ZM10 19.5V16.5H9V19.5H10ZM11 12.5H3V13.5H11V12.5ZM10.5 3V13H11.5V3H10.5ZM4.25 3.5H11V2.5H4.25V3.5ZM3.5 4.25C3.5 3.83614 3.83614 3.5 4.25 3.5V2.5C3.28386 2.5 2.5 3.28386 2.5 4.25H3.5ZM3.5 13V4.25H2.5V13H3.5ZM4.5 12H9.5V11H4.5V12ZM4 4.5V11.5H5V4.5H4ZM9.5 4H4.5V5H9.5V4ZM10 11.5V4.5H9V11.5H10Z" fill="#9098A5" mask="url(#path-1-inside-1_0_17114)"/>
</svg>
