<svg width="24" height="24" viewBox="0 0 24 24" fill="none" xmlns="http://www.w3.org/2000/svg">
<mask id="path-1-inside-1_0_21682" fill="white">
<path fill-rule="evenodd" clip-rule="evenodd" d="M5.865 20.135C6.105 20.37 6.415 20.5 6.75 20.5H14V22.005H6.75C6.015 22.005 5.325 21.72 4.805 21.2C4.285 20.68 4 19.99 4 19.255V4.755C4 3.235 5.235 2 6.75 2H14V3.505H6.75C6.06 3.505 5.5 4.065 5.5 4.755V19.25C5.5 19.585 5.63 19.9 5.865 20.135ZM16.53 7.21497L20.675 11.36C21.16 11.85 21.16 12.645 20.675 13.13L16.53 17.275L15.47 16.215L18.685 13H10V11.5H18.695L15.47 8.27497L16.53 7.21497Z"/>
</mask>
<path fill-rule="evenodd" clip-rule="evenodd" d="M5.865 20.135C6.105 20.37 6.415 20.5 6.75 20.5H14V22.005H6.75C6.015 22.005 5.325 21.72 4.805 21.2C4.285 20.68 4 19.99 4 19.255V4.755C4 3.235 5.235 2 6.75 2H14V3.505H6.75C6.06 3.505 5.5 4.065 5.5 4.755V19.25C5.5 19.585 5.63 19.9 5.865 20.135ZM16.53 7.21497L20.675 11.36C21.16 11.85 21.16 12.645 20.675 13.13L16.53 17.275L15.47 16.215L18.685 13H10V11.5H18.695L15.47 8.27497L16.53 7.21497Z" fill="#9098A5"/>
<path d="M5.865 20.135L5.51143 20.4886L5.51519 20.4923L5.865 20.135ZM14 20.5H14.5V20H14V20.5ZM14 22.005V22.505H14.5V22.005H14ZM14 2H14.5V1.5H14V2ZM14 3.505V4.005H14.5V3.505H14ZM20.675 11.36L21.0304 11.0082L21.0286 11.0064L20.675 11.36ZM16.53 7.21497L16.8836 6.86141L16.53 6.50786L16.1764 6.86141L16.53 7.21497ZM20.675 13.13L20.3214 12.7764L20.675 13.13ZM16.53 17.275L16.1764 17.6285L16.53 17.9821L16.8836 17.6285L16.53 17.275ZM15.47 16.215L15.1164 15.8614L14.7629 16.215L15.1164 16.5685L15.47 16.215ZM18.685 13L19.0386 13.3535L19.8921 12.5H18.685V13ZM10 13H9.5V13.5H10V13ZM10 11.5V11H9.5V11.5H10ZM18.695 11.5V12H19.9021L19.0486 11.1464L18.695 11.5ZM15.47 8.27497L15.1164 7.92141L14.7629 8.27497L15.1164 8.62852L15.47 8.27497ZM6.75 20C6.54956 20 6.36409 19.9239 6.21481 19.7777L5.51519 20.4923C5.8459 20.8161 6.28044 21 6.75 21V20ZM14 20H6.75V21H14V20ZM14.5 22.005V20.5H13.5V22.005H14.5ZM6.75 22.505H14V21.505H6.75V22.505ZM4.45145 21.5536C5.06546 22.1676 5.88273 22.505 6.75 22.505V21.505C6.14727 21.505 5.58454 21.2724 5.15855 20.8464L4.45145 21.5536ZM3.5 19.255C3.5 20.1223 3.83744 20.9395 4.45145 21.5536L5.15855 20.8464C4.73256 20.4205 4.5 19.8577 4.5 19.255H3.5ZM3.5 4.755V19.255H4.5V4.755H3.5ZM6.75 1.5C4.95827 1.5 3.5 2.95945 3.5 4.755H4.5C4.5 3.51055 5.51173 2.5 6.75 2.5V1.5ZM14 1.5H6.75V2.5H14V1.5ZM14.5 3.505V2H13.5V3.505H14.5ZM6.75 4.005H14V3.005H6.75V4.005ZM6 4.755C6 4.34114 6.33614 4.005 6.75 4.005V3.005C5.78386 3.005 5 3.78886 5 4.755H6ZM6 19.25V4.755H5V19.25H6ZM6.21855 19.7814C6.07807 19.641 6 19.4534 6 19.25H5C5 19.7165 5.18193 20.159 5.51145 20.4886L6.21855 19.7814ZM21.0286 11.0064L16.8836 6.86141L16.1764 7.56852L20.3214 11.7135L21.0286 11.0064ZM21.0286 13.4835C21.7098 12.8023 21.7072 11.6921 21.0304 11.0082L20.3196 11.7117C20.6128 12.0079 20.6102 12.4877 20.3214 12.7764L21.0286 13.4835ZM16.8836 17.6285L21.0286 13.4835L20.3214 12.7764L16.1764 16.9214L16.8836 17.6285ZM15.1164 16.5685L16.1764 17.6285L16.8836 16.9214L15.8236 15.8614L15.1164 16.5685ZM18.3314 12.6464L15.1164 15.8614L15.8236 16.5685L19.0386 13.3535L18.3314 12.6464ZM10 13.5H18.685V12.5H10V13.5ZM9.5 11.5V13H10.5V11.5H9.5ZM18.695 11H10V12H18.695V11ZM15.1164 8.62852L18.3414 11.8535L19.0486 11.1464L15.8236 7.92141L15.1164 8.62852ZM16.1764 6.86141L15.1164 7.92141L15.8236 8.62852L16.8836 7.56852L16.1764 6.86141Z" fill="#9098A5" mask="url(#path-1-inside-1_0_21682)"/>
</svg>
