<svg width="24" height="24" viewBox="0 0 24 24" fill="none" xmlns="http://www.w3.org/2000/svg">
<mask id="path-1-inside-1_0_16539" fill="white">
<path fill-rule="evenodd" clip-rule="evenodd" d="M17 3.5V2H7V3.5H4V22H20V3.5H17ZM8.5 3.5H15.5V4.25C15.5 4.94 14.94 5.5 14.25 5.5H9.75C9.06 5.5 8.5 4.94 8.5 4.25V3.5ZM18.5 20.5H5.5V5H7.105C7.435 6.15 8.49 7 9.75 7H14.25C15.505 7 16.565 6.15 16.895 5H18.5V20.5ZM16.5 13H11V14.5H16.5V13ZM7.5 14.5V13H9.5V14.5H7.5ZM16.5 16.5H11V18H16.5V16.5ZM7.5 18V16.5H9.5V18H7.5ZM16.5 9.5H11V11H16.5V9.5ZM7.5 11V9.5H9.5V11H7.5Z"/>
</mask>
<path fill-rule="evenodd" clip-rule="evenodd" d="M17 3.5V2H7V3.5H4V22H20V3.5H17ZM8.5 3.5H15.5V4.25C15.5 4.94 14.94 5.5 14.25 5.5H9.75C9.06 5.5 8.5 4.94 8.5 4.25V3.5ZM18.5 20.5H5.5V5H7.105C7.435 6.15 8.49 7 9.75 7H14.25C15.505 7 16.565 6.15 16.895 5H18.5V20.5ZM16.5 13H11V14.5H16.5V13ZM7.5 14.5V13H9.5V14.5H7.5ZM16.5 16.5H11V18H16.5V16.5ZM7.5 18V16.5H9.5V18H7.5ZM16.5 9.5H11V11H16.5V9.5ZM7.5 11V9.5H9.5V11H7.5Z" fill="#9098A5"/>
<path d="M17 2H17.5V1.5H17V2ZM17 3.5H16.5V4H17V3.5ZM7 2V1.5H6.5V2H7ZM7 3.5V4H7.5V3.5H7ZM4 3.5V3H3.5V3.5H4ZM4 22H3.5V22.5H4V22ZM20 22V22.5H20.5V22H20ZM20 3.5H20.5V3H20V3.5ZM15.5 3.5H16V3H15.5V3.5ZM8.5 3.5V3H8V3.5H8.5ZM5.5 20.5H5V21H5.5V20.5ZM18.5 20.5V21H19V20.5H18.5ZM5.5 5V4.5H5V5H5.5ZM7.105 5L7.5856 4.86209L7.4817 4.5H7.105V5ZM16.895 5V4.5H16.5183L16.4144 4.86209L16.895 5ZM18.5 5H19V4.5H18.5V5ZM11 13V12.5H10.5V13H11ZM16.5 13H17V12.5H16.5V13ZM11 14.5H10.5V15H11V14.5ZM16.5 14.5V15H17V14.5H16.5ZM7.5 13V12.5H7V13H7.5ZM7.5 14.5H7V15H7.5V14.5ZM9.5 13H10V12.5H9.5V13ZM9.5 14.5V15H10V14.5H9.5ZM11 16.5V16H10.5V16.5H11ZM16.5 16.5H17V16H16.5V16.5ZM11 18H10.5V18.5H11V18ZM16.5 18V18.5H17V18H16.5ZM7.5 16.5V16H7V16.5H7.5ZM7.5 18H7V18.5H7.5V18ZM9.5 16.5H10V16H9.5V16.5ZM9.5 18V18.5H10V18H9.5ZM11 9.5V9H10.5V9.5H11ZM16.5 9.5H17V9H16.5V9.5ZM11 11H10.5V11.5H11V11ZM16.5 11V11.5H17V11H16.5ZM7.5 9.5V9H7V9.5H7.5ZM7.5 11H7V11.5H7.5V11ZM9.5 9.5H10V9H9.5V9.5ZM9.5 11V11.5H10V11H9.5ZM16.5 2V3.5H17.5V2H16.5ZM7 2.5H17V1.5H7V2.5ZM7.5 3.5V2H6.5V3.5H7.5ZM4 4H7V3H4V4ZM4.5 22V3.5H3.5V22H4.5ZM20 21.5H4V22.5H20V21.5ZM19.5 3.5V22H20.5V3.5H19.5ZM17 4H20V3H17V4ZM15.5 3H8.5V4H15.5V3ZM16 4.25V3.5H15V4.25H16ZM14.25 6C15.2161 6 16 5.21614 16 4.25H15C15 4.66386 14.6639 5 14.25 5V6ZM9.75 6H14.25V5H9.75V6ZM8 4.25C8 5.21614 8.78386 6 9.75 6V5C9.33614 5 9 4.66386 9 4.25H8ZM8 3.5V4.25H9V3.5H8ZM5.5 21H18.5V20H5.5V21ZM5 5V20.5H6V5H5ZM7.105 4.5H5.5V5.5H7.105V4.5ZM9.75 6.5C8.72187 6.5 7.85656 5.80634 7.5856 4.86209L6.6244 5.13791C7.01344 6.49366 8.25813 7.5 9.75 7.5V6.5ZM14.25 6.5H9.75V7.5H14.25V6.5ZM16.4144 4.86209C16.1436 5.80581 15.2737 6.5 14.25 6.5V7.5C15.7363 7.5 16.9864 6.49419 17.3756 5.13791L16.4144 4.86209ZM18.5 4.5H16.895V5.5H18.5V4.5ZM19 20.5V5H18V20.5H19ZM11 13.5H16.5V12.5H11V13.5ZM11.5 14.5V13H10.5V14.5H11.5ZM16.5 14H11V15H16.5V14ZM16 13V14.5H17V13H16ZM7 13V14.5H8V13H7ZM9.5 12.5H7.5V13.5H9.5V12.5ZM10 14.5V13H9V14.5H10ZM7.5 15H9.5V14H7.5V15ZM11 17H16.5V16H11V17ZM11.5 18V16.5H10.5V18H11.5ZM16.5 17.5H11V18.5H16.5V17.5ZM16 16.5V18H17V16.5H16ZM7 16.5V18H8V16.5H7ZM9.5 16H7.5V17H9.5V16ZM10 18V16.5H9V18H10ZM7.5 18.5H9.5V17.5H7.5V18.5ZM11 10H16.5V9H11V10ZM11.5 11V9.5H10.5V11H11.5ZM16.5 10.5H11V11.5H16.5V10.5ZM16 9.5V11H17V9.5H16ZM7 9.5V11H8V9.5H7ZM9.5 9H7.5V10H9.5V9ZM10 11V9.5H9V11H10ZM7.5 11.5H9.5V10.5H7.5V11.5Z" fill="#9098A5" mask="url(#path-1-inside-1_0_16539)"/>
</svg>
