<svg width="24" height="24" viewBox="0 0 24 24" fill="none" xmlns="http://www.w3.org/2000/svg">
<path d="M15.9677 14.9403L15.8221 15.1156L15.9832 15.2768L21.4264 20.72L20.72 21.4264L15.2768 15.9832L15.1156 15.8221L14.9403 15.9677C13.5986 17.0817 11.8746 17.75 10 17.75C5.72807 17.75 2.25 14.2719 2.25 10C2.25 5.72807 5.72807 2.25 10 2.25C14.2719 2.25 17.75 5.72807 17.75 10C17.75 11.8746 17.0817 13.5986 15.9677 14.9403ZM3.25 10C3.25 13.7231 6.27693 16.75 10 16.75C13.7231 16.75 16.75 13.7231 16.75 10C16.75 6.27693 13.7231 3.25 10 3.25C6.27693 3.25 3.25 6.27693 3.25 10Z" fill="#9098A5" stroke="#9098A5" stroke-width="0.5"/>
</svg>
