<svg width="24" height="24" viewBox="0 0 24 24" fill="none" xmlns="http://www.w3.org/2000/svg">
<mask id="path-1-inside-1_0_20538" fill="white">
<path fill-rule="evenodd" clip-rule="evenodd" d="M4 2H13.56L20 8.44V22H4V2ZM17.44 8L14 4.56V8H17.44ZM5.5 3.5V20.5H18.5V9.5H13.75C13.06 9.5 12.5 8.94 12.5 8.25V3.5H5.5ZM11.25 11.25H12.75V14H15.5V15.5H12.75V18.25H11.25V15.5H8.5V14H11.25V11.25Z"/>
</mask>
<path fill-rule="evenodd" clip-rule="evenodd" d="M4 2H13.56L20 8.44V22H4V2ZM17.44 8L14 4.56V8H17.44ZM5.5 3.5V20.5H18.5V9.5H13.75C13.06 9.5 12.5 8.94 12.5 8.25V3.5H5.5ZM11.25 11.25H12.75V14H15.5V15.5H12.75V18.25H11.25V15.5H8.5V14H11.25V11.25Z" fill="#9098A5"/>
<path d="M13.56 2L13.9136 1.64645L13.7671 1.5H13.56V2ZM4 2V1.5H3.5V2H4ZM20 8.44H20.5V8.23289L20.3536 8.08645L20 8.44ZM20 22V22.5H20.5V22H20ZM4 22H3.5V22.5H4V22ZM14 4.56L14.3536 4.20645L13.5 3.35289V4.56H14ZM17.44 8V8.5H18.6471L17.7936 7.64645L17.44 8ZM14 8H13.5V8.5H14V8ZM5.5 20.5H5V21H5.5V20.5ZM5.5 3.5V3H5V3.5H5.5ZM18.5 20.5V21H19V20.5H18.5ZM18.5 9.5H19V9H18.5V9.5ZM12.5 3.5H13V3H12.5V3.5ZM12.75 11.25H13.25V10.75H12.75V11.25ZM11.25 11.25V10.75H10.75V11.25H11.25ZM12.75 14H12.25V14.5H12.75V14ZM15.5 14H16V13.5H15.5V14ZM15.5 15.5V16H16V15.5H15.5ZM12.75 15.5V15H12.25V15.5H12.75ZM12.75 18.25V18.75H13.25V18.25H12.75ZM11.25 18.25H10.75V18.75H11.25V18.25ZM11.25 15.5H11.75V15H11.25V15.5ZM8.5 15.5H8V16H8.5V15.5ZM8.5 14V13.5H8V14H8.5ZM11.25 14V14.5H11.75V14H11.25ZM13.56 1.5H4V2.5H13.56V1.5ZM20.3536 8.08645L13.9136 1.64645L13.2064 2.35355L19.6464 8.79355L20.3536 8.08645ZM20.5 22V8.44H19.5V22H20.5ZM4 22.5H20V21.5H4V22.5ZM3.5 2V22H4.5V2H3.5ZM13.6464 4.91355L17.0864 8.35355L17.7936 7.64645L14.3536 4.20645L13.6464 4.91355ZM14.5 8V4.56H13.5V8H14.5ZM17.44 7.5H14V8.5H17.44V7.5ZM6 20.5V3.5H5V20.5H6ZM18.5 20H5.5V21H18.5V20ZM18 9.5V20.5H19V9.5H18ZM13.75 10H18.5V9H13.75V10ZM12 8.25C12 9.21614 12.7839 10 13.75 10V9C13.3361 9 13 8.66386 13 8.25H12ZM12 3.5V8.25H13V3.5H12ZM5.5 4H12.5V3H5.5V4ZM12.75 10.75H11.25V11.75H12.75V10.75ZM13.25 14V11.25H12.25V14H13.25ZM15.5 13.5H12.75V14.5H15.5V13.5ZM16 15.5V14H15V15.5H16ZM12.75 16H15.5V15H12.75V16ZM13.25 18.25V15.5H12.25V18.25H13.25ZM11.25 18.75H12.75V17.75H11.25V18.75ZM10.75 15.5V18.25H11.75V15.5H10.75ZM8.5 16H11.25V15H8.5V16ZM8 14V15.5H9V14H8ZM11.25 13.5H8.5V14.5H11.25V13.5ZM10.75 11.25V14H11.75V11.25H10.75Z" fill="#9098A5" mask="url(#path-1-inside-1_0_20538)"/>
</svg>
