<svg width="24" height="24" viewBox="0 0 24 24" fill="none" xmlns="http://www.w3.org/2000/svg">
<mask id="path-1-inside-1_0_15990" fill="white">
<path fill-rule="evenodd" clip-rule="evenodd" d="M2 12C2 17.515 6.485 22 12 22C17.515 22 22 17.515 22 12C22 6.485 17.515 2 12 2C6.485 2 2 6.485 2 12ZM3.5 12C3.5 7.315 7.315 3.5 12 3.5C16.685 3.5 20.5 7.315 20.5 12C20.5 16.685 16.685 20.5 12 20.5C7.315 20.5 3.5 16.685 3.5 12ZM17 9.5C17 10.3284 16.3284 11 15.5 11C14.6716 11 14 10.3284 14 9.5C14 8.67157 14.6716 8 15.5 8C16.3284 8 17 8.67157 17 9.5ZM8.5 11C9.32843 11 10 10.3284 10 9.5C10 8.67157 9.32843 8 8.5 8C7.67157 8 7 8.67157 7 9.5C7 10.3284 7.67157 11 8.5 11ZM8.10498 14.25C8.90498 15.64 10.4 16.5 12 16.5H12.01C13.61 16.5 15.105 15.635 15.905 14.25L14.605 13.5C14.07 14.425 13.075 15 12.005 15C10.935 15 9.93998 14.425 9.40498 13.5L8.10498 14.25Z"/>
</mask>
<path fill-rule="evenodd" clip-rule="evenodd" d="M2 12C2 17.515 6.485 22 12 22C17.515 22 22 17.515 22 12C22 6.485 17.515 2 12 2C6.485 2 2 6.485 2 12ZM3.5 12C3.5 7.315 7.315 3.5 12 3.5C16.685 3.5 20.5 7.315 20.5 12C20.5 16.685 16.685 20.5 12 20.5C7.315 20.5 3.5 16.685 3.5 12ZM17 9.5C17 10.3284 16.3284 11 15.5 11C14.6716 11 14 10.3284 14 9.5C14 8.67157 14.6716 8 15.5 8C16.3284 8 17 8.67157 17 9.5ZM8.5 11C9.32843 11 10 10.3284 10 9.5C10 8.67157 9.32843 8 8.5 8C7.67157 8 7 8.67157 7 9.5C7 10.3284 7.67157 11 8.5 11ZM8.10498 14.25C8.90498 15.64 10.4 16.5 12 16.5H12.01C13.61 16.5 15.105 15.635 15.905 14.25L14.605 13.5C14.07 14.425 13.075 15 12.005 15C10.935 15 9.93998 14.425 9.40498 13.5L8.10498 14.25Z" fill="#9098A5"/>
<path d="M8.10498 14.25L7.85512 13.8169L7.42248 14.0665L7.67163 14.4994L8.10498 14.25ZM15.905 14.25L16.3379 14.5001L16.5882 14.0669L16.1548 13.8169L15.905 14.25ZM14.605 13.5L14.8548 13.0669L14.4222 12.8173L14.1722 13.2497L14.605 13.5ZM9.40498 13.5L9.8378 13.2497L9.58774 12.8173L9.15512 13.0669L9.40498 13.5ZM12 21.5C6.76114 21.5 2.5 17.2389 2.5 12H1.5C1.5 17.7911 6.20886 22.5 12 22.5V21.5ZM21.5 12C21.5 17.2389 17.2389 21.5 12 21.5V22.5C17.7911 22.5 22.5 17.7911 22.5 12H21.5ZM12 2.5C17.2389 2.5 21.5 6.76114 21.5 12H22.5C22.5 6.20886 17.7911 1.5 12 1.5V2.5ZM2.5 12C2.5 6.76114 6.76114 2.5 12 2.5V1.5C6.20886 1.5 1.5 6.20886 1.5 12H2.5ZM12 3C7.03886 3 3 7.03886 3 12H4C4 7.59114 7.59114 4 12 4V3ZM21 12C21 7.03886 16.9611 3 12 3V4C16.4089 4 20 7.59114 20 12H21ZM12 21C16.9611 21 21 16.9611 21 12H20C20 16.4089 16.4089 20 12 20V21ZM3 12C3 16.9611 7.03886 21 12 21V20C7.59114 20 4 16.4089 4 12H3ZM15.5 11.5C16.6046 11.5 17.5 10.6046 17.5 9.5H16.5C16.5 10.0523 16.0523 10.5 15.5 10.5V11.5ZM13.5 9.5C13.5 10.6046 14.3954 11.5 15.5 11.5V10.5C14.9477 10.5 14.5 10.0523 14.5 9.5H13.5ZM15.5 7.5C14.3954 7.5 13.5 8.39543 13.5 9.5H14.5C14.5 8.94772 14.9477 8.5 15.5 8.5V7.5ZM17.5 9.5C17.5 8.39543 16.6046 7.5 15.5 7.5V8.5C16.0523 8.5 16.5 8.94772 16.5 9.5H17.5ZM9.5 9.5C9.5 10.0523 9.05228 10.5 8.5 10.5V11.5C9.60457 11.5 10.5 10.6046 10.5 9.5H9.5ZM8.5 8.5C9.05228 8.5 9.5 8.94772 9.5 9.5H10.5C10.5 8.39543 9.60457 7.5 8.5 7.5V8.5ZM7.5 9.5C7.5 8.94772 7.94772 8.5 8.5 8.5V7.5C7.39543 7.5 6.5 8.39543 6.5 9.5H7.5ZM8.5 10.5C7.94772 10.5 7.5 10.0523 7.5 9.5H6.5C6.5 10.6046 7.39543 11.5 8.5 11.5V10.5ZM12 16C10.5781 16 9.24874 15.2349 8.53833 14.0006L7.67163 14.4994C8.56122 16.0451 10.2218 17 12 17V16ZM12.01 16H12V17H12.01V16ZM15.472 13.9999C14.7611 15.2306 13.431 16 12.01 16V17C13.789 17 15.4488 16.0394 16.3379 14.5001L15.472 13.9999ZM14.3551 13.9331L15.6551 14.6831L16.1548 13.8169L14.8548 13.0669L14.3551 13.9331ZM12.005 15.5C13.2537 15.5 14.4135 14.8297 15.0378 13.7503L14.1722 13.2497C13.7264 14.0203 12.8963 14.5 12.005 14.5V15.5ZM8.97216 13.7503C9.59643 14.8297 10.7563 15.5 12.005 15.5V14.5C11.1137 14.5 10.2835 14.0203 9.8378 13.2497L8.97216 13.7503ZM8.35484 14.6831L9.65484 13.9331L9.15512 13.0669L7.85512 13.8169L8.35484 14.6831Z" fill="#9098A5" mask="url(#path-1-inside-1_0_15990)"/>
</svg>
