<svg width="24" height="24" viewBox="0 0 24 24" fill="none" xmlns="http://www.w3.org/2000/svg">
<mask id="path-1-inside-1_0_11156" fill="white">
<path fill-rule="evenodd" clip-rule="evenodd" d="M19.25 2C19.985 2 20.675 2.285 21.195 2.805C21.715 3.325 22 4.015 22 4.75C22 5.485 21.715 6.175 21.195 6.695L12.775 15.115L9.125 15.74C9.085 15.75 9.04 15.75 9 15.75C8.805 15.75 8.61 15.67 8.47 15.53C8.295 15.36 8.22 15.115 8.26 14.875L8.885 11.225L17.305 2.805C17.825 2.285 18.515 2 19.25 2ZM9.915 14.08L12.05 13.715L20.135 5.635C20.37 5.395 20.5 5.085 20.5 4.75C20.5 4.415 20.37 4.1 20.135 3.865C19.66 3.39 18.84 3.39 18.365 3.865L10.28 11.945L9.915 14.08ZM18.25 19.5C18.94 19.5 19.5 18.94 19.5 18.25V10.495H21V18.25C21 19.765 19.765 21 18.25 21H5.75C4.235 21 3 19.765 3 18.25V5.75C3 4.235 4.235 3 5.75 3H13.5V4.5H5.75C5.06 4.5 4.5 5.06 4.5 5.75V18.25C4.5 18.94 5.06 19.5 5.75 19.5H18.25Z"/>
</mask>
<path fill-rule="evenodd" clip-rule="evenodd" d="M19.25 2C19.985 2 20.675 2.285 21.195 2.805C21.715 3.325 22 4.015 22 4.75C22 5.485 21.715 6.175 21.195 6.695L12.775 15.115L9.125 15.74C9.085 15.75 9.04 15.75 9 15.75C8.805 15.75 8.61 15.67 8.47 15.53C8.295 15.36 8.22 15.115 8.26 14.875L8.885 11.225L17.305 2.805C17.825 2.285 18.515 2 19.25 2ZM9.915 14.08L12.05 13.715L20.135 5.635C20.37 5.395 20.5 5.085 20.5 4.75C20.5 4.415 20.37 4.1 20.135 3.865C19.66 3.39 18.84 3.39 18.365 3.865L10.28 11.945L9.915 14.08ZM18.25 19.5C18.94 19.5 19.5 18.94 19.5 18.25V10.495H21V18.25C21 19.765 19.765 21 18.25 21H5.75C4.235 21 3 19.765 3 18.25V5.75C3 4.235 4.235 3 5.75 3H13.5V4.5H5.75C5.06 4.5 4.5 5.06 4.5 5.75V18.25C4.5 18.94 5.06 19.5 5.75 19.5H18.25Z" fill="#9098A5"/>
<path d="M21.195 6.695L20.8414 6.34145V6.34145L21.195 6.695ZM12.775 15.115L12.8594 15.6078L13.0161 15.581L13.1285 15.4686L12.775 15.115ZM9.125 15.74L9.04061 15.2472L9.02202 15.2504L9.00373 15.2549L9.125 15.74ZM8.47 15.53L8.82359 15.1764L8.81839 15.1714L8.47 15.53ZM8.26 14.875L7.76716 14.7906L7.7668 14.7928L8.26 14.875ZM8.885 11.225L8.53144 10.8714L8.41901 10.9839L8.39217 11.1406L8.885 11.225ZM17.305 2.805L16.9514 2.45145L16.9514 2.45145L17.305 2.805ZM12.05 13.715L12.1343 14.2078L12.291 14.1811L12.4034 14.0687L12.05 13.715ZM9.915 14.08L9.42215 13.9957L9.30314 14.6919L9.99925 14.5728L9.915 14.08ZM20.135 5.635L20.4885 5.98868L20.4923 5.98481L20.135 5.635ZM20.135 3.865L19.7814 4.21855V4.21855L20.135 3.865ZM18.365 3.865L18.7184 4.21866L18.7185 4.21855L18.365 3.865ZM10.28 11.945L9.92655 11.5913L9.81397 11.7039L9.78715 11.8607L10.28 11.945ZM19.5 10.495V9.995H19V10.495H19.5ZM21 10.495H21.5V9.995H21V10.495ZM13.5 3H14V2.5H13.5V3ZM13.5 4.5V5H14V4.5H13.5ZM21.5485 2.45145C20.9345 1.83744 20.1173 1.5 19.25 1.5V2.5C19.8527 2.5 20.4155 2.73256 20.8414 3.15855L21.5485 2.45145ZM22.5 4.75C22.5 3.88273 22.1626 3.06545 21.5485 2.45145L20.8414 3.15855C21.2674 3.58455 21.5 4.14727 21.5 4.75H22.5ZM21.5485 7.04855C22.1626 6.43455 22.5 5.61727 22.5 4.75H21.5C21.5 5.35273 21.2674 5.91545 20.8414 6.34145L21.5485 7.04855ZM13.1285 15.4686L21.5485 7.04855L20.8414 6.34145L12.4214 14.7614L13.1285 15.4686ZM9.20938 16.2328L12.8594 15.6078L12.6906 14.6222L9.04061 15.2472L9.20938 16.2328ZM9 16.25C9.02702 16.25 9.13585 16.2527 9.24627 16.2251L9.00373 15.2549C9.01488 15.2521 9.0232 15.2508 9.02765 15.2502C9.03212 15.2496 9.03424 15.2495 9.03313 15.2496C9.03203 15.2497 9.02911 15.2498 9.02332 15.2499C9.01718 15.25 9.01055 15.25 9 15.25V16.25ZM8.11644 15.8836C8.35039 16.1175 8.67265 16.25 9 16.25V15.25C8.93735 15.25 8.8696 15.2225 8.82355 15.1764L8.11644 15.8836ZM7.7668 14.7928C7.70117 15.1866 7.82323 15.5988 8.1216 15.8886L8.81839 15.1714C8.76676 15.1212 8.73882 15.0434 8.75319 14.9572L7.7668 14.7928ZM8.39217 11.1406L7.76717 14.7906L8.75282 14.9594L9.37782 11.3094L8.39217 11.1406ZM16.9514 2.45145L8.53144 10.8714L9.23855 11.5786L17.6586 3.15855L16.9514 2.45145ZM19.25 1.5C18.3827 1.5 17.5655 1.83744 16.9514 2.45145L17.6585 3.15855C18.0845 2.73256 18.6473 2.5 19.25 2.5V1.5ZM11.9657 13.2222L9.83074 13.5872L9.99925 14.5728L12.1343 14.2078L11.9657 13.2222ZM19.7816 5.28134L11.6966 13.3613L12.4034 14.0687L20.4884 5.98866L19.7816 5.28134ZM20 4.75C20 4.95044 19.9239 5.13591 19.7777 5.28519L20.4923 5.98481C20.8161 5.6541 21 5.21956 21 4.75H20ZM19.7814 4.21855C19.9219 4.35904 20 4.54655 20 4.75H21C21 4.28345 20.8181 3.84096 20.4886 3.51145L19.7814 4.21855ZM18.7185 4.21855C18.9983 3.93882 19.5017 3.93882 19.7814 4.21855L20.4886 3.51145C19.8183 2.84118 18.6817 2.84118 18.0114 3.51145L18.7185 4.21855ZM10.6334 12.2987L18.7184 4.21866L18.0116 3.51134L9.92655 11.5913L10.6334 12.2987ZM10.4078 14.1643L10.7728 12.0293L9.78715 11.8607L9.42215 13.9957L10.4078 14.1643ZM19 18.25C19 18.6639 18.6639 19 18.25 19V20C19.2161 20 20 19.2161 20 18.25H19ZM19 10.495V18.25H20V10.495H19ZM21 9.995H19.5V10.995H21V9.995ZM21.5 18.25V10.495H20.5V18.25H21.5ZM18.25 21.5C20.0411 21.5 21.5 20.0411 21.5 18.25H20.5C20.5 19.4889 19.4889 20.5 18.25 20.5V21.5ZM5.75 21.5H18.25V20.5H5.75V21.5ZM2.5 18.25C2.5 20.0411 3.95886 21.5 5.75 21.5V20.5C4.51114 20.5 3.5 19.4889 3.5 18.25H2.5ZM2.5 5.75V18.25H3.5V5.75H2.5ZM5.75 2.5C3.95886 2.5 2.5 3.95886 2.5 5.75H3.5C3.5 4.51114 4.51114 3.5 5.75 3.5V2.5ZM13.5 2.5H5.75V3.5H13.5V2.5ZM14 4.5V3H13V4.5H14ZM5.75 5H13.5V4H5.75V5ZM5 5.75C5 5.33614 5.33614 5 5.75 5V4C4.78386 4 4 4.78386 4 5.75H5ZM5 18.25V5.75H4V18.25H5ZM5.75 19C5.33614 19 5 18.6639 5 18.25H4C4 19.2161 4.78386 20 5.75 20V19ZM18.25 19H5.75V20H18.25V19Z" fill="#9098A5" mask="url(#path-1-inside-1_0_11156)"/>
</svg>
