<svg width="24" height="24" viewBox="0 0 24 24" fill="none" xmlns="http://www.w3.org/2000/svg">
<path d="M18 10.605V8C18 4.69 15.31 2 12 2C8.69 2 6 4.69 6 8V10.605C4.85 10.935 4 11.99 4 13.25V19.25C4 20.765 5.235 22 6.75 22H17.25C18.765 22 20 20.765 20 19.25V13.25C20 11.995 19.15 10.935 18 10.605ZM12 3.5C14.48 3.5 16.5 5.52 16.5 8V10.5H7.5V8C7.5 5.52 9.52 3.5 12 3.5ZM18.5 19.25C18.5 19.94 17.94 20.5 17.25 20.5H6.75C6.06 20.5 5.5 19.94 5.5 19.25V13.25C5.5 12.56 6.06 12 6.75 12H17.25C17.94 12 18.5 12.56 18.5 13.25V19.25Z" fill="#B4B9C3"/>
</svg>
