<svg width="24" height="24" viewBox="0 0 24 24" fill="none" xmlns="http://www.w3.org/2000/svg">
<path fill-rule="evenodd" clip-rule="evenodd" d="M9.56997 21.7C10.36 21.9 11.18 22 12 22V21.995C12.82 21.995 13.64 21.895 14.43 21.695L15 21.555V19.41C15.695 19.135 16.34 18.76 16.925 18.3L18.78 19.37L19.185 18.95C20.33 17.765 21.17 16.31 21.62 14.735L21.78 14.17L19.925 13.1C19.975 12.735 20 12.36 20 11.99C20 11.62 19.975 11.245 19.925 10.88L21.78 9.80997L21.62 9.24997C21.17 7.67997 20.33 6.21997 19.185 5.03997L18.78 4.61997L16.925 5.68997C16.34 5.22997 15.695 4.85997 15.005 4.57997V2.43997L14.435 2.29997C12.85 1.90497 11.155 1.90497 9.56997 2.29997L8.99997 2.43997V4.59497C8.30997 4.86997 7.66497 5.24497 7.07497 5.70497L5.21997 4.63497L4.81497 5.05497C3.66997 6.23497 2.82997 7.68997 2.37997 9.26497L2.21997 9.82497L4.07497 10.895C4.02497 11.26 3.99997 11.635 3.99997 12.005C3.99997 12.375 4.02497 12.75 4.07497 13.115L2.21997 14.185L2.37997 14.745C2.82997 16.315 3.66997 17.775 4.81497 18.955L5.21997 19.375L7.07497 18.305C7.66497 18.765 8.30997 19.135 8.99997 19.415V21.56L9.56997 21.7ZM13.5 20.37C12.515 20.545 11.485 20.545 10.5 20.37L10.51 20.365V19.24C10.51 18.715 10.19 18.26 9.69497 18.07C9.04497 17.825 8.44497 17.475 7.90497 17.035C7.49497 16.7 6.93497 16.655 6.48497 16.915L5.50997 17.475C4.85997 16.705 4.34997 15.825 4.00997 14.88L4.98497 14.32C5.43497 14.06 5.67497 13.555 5.58997 13.035C5.53497 12.695 5.50997 12.345 5.50997 12C5.50997 11.655 5.53497 11.305 5.58997 10.965C5.67497 10.445 5.43497 9.93997 4.98497 9.67997L4.00997 9.11497C4.34997 8.17497 4.85997 7.28997 5.50997 6.51997L6.47997 7.07997C6.92997 7.33997 7.48997 7.29497 7.89997 6.95997C8.43997 6.51997 9.04497 6.16997 9.68997 5.92497C10.185 5.73497 10.505 5.27497 10.505 4.75497V3.62997C11.49 3.45497 12.52 3.45497 13.505 3.62997V4.75497C13.505 5.27997 13.825 5.73497 14.32 5.92497C14.97 6.17497 15.57 6.51997 16.11 6.95997C16.52 7.29497 17.075 7.33997 17.53 7.07997L18.5 6.51997C19.15 7.28997 19.66 8.16997 20 9.11497L19.025 9.67997C18.575 9.93997 18.335 10.445 18.42 10.965C18.475 11.305 18.505 11.655 18.505 12C18.505 12.345 18.475 12.695 18.42 13.035C18.335 13.555 18.575 14.06 19.025 14.32L20 14.88C19.66 15.825 19.15 16.71 18.5 17.48L17.525 16.92C17.075 16.66 16.515 16.705 16.105 17.04C15.565 17.48 14.965 17.83 14.315 18.075C13.82 18.265 13.5 18.725 13.5 19.245V20.37ZM8 12C8 14.205 9.795 16 12 16C14.205 16 16 14.205 16 12C16 9.795 14.205 8 12 8C9.795 8 8 9.795 8 12ZM9.5 12C9.5 10.62 10.62 9.5 12 9.5C13.38 9.5 14.5 10.62 14.5 12C14.5 13.38 13.38 14.5 12 14.5C10.62 14.5 9.5 13.38 9.5 12Z" fill="#9098A5"/>
</svg>
