<svg width="24" height="24" viewBox="0 0 24 24" fill="none" xmlns="http://www.w3.org/2000/svg">
<mask id="path-1-inside-1_0_17686" fill="white">
<path fill-rule="evenodd" clip-rule="evenodd" d="M17.5 11V3H6.5V8H3V21H21V11H17.5ZM6.5 19.5H4.5V9.5H6.5V19.5ZM16 19.5H8V4.5H16V19.5ZM19.5 19.5H17.5V12.5H19.5V19.5ZM11 6H9.5V8.5H11V6ZM13 6H14.5V8.5H13V6ZM11 10H9.5V12.5H11V10ZM13 10H14.5V12.5H13V10ZM11 14H9.5V16.5H11V14ZM13 14H14.5V16.5H13V14Z"/>
</mask>
<path fill-rule="evenodd" clip-rule="evenodd" d="M17.5 11V3H6.5V8H3V21H21V11H17.5ZM6.5 19.5H4.5V9.5H6.5V19.5ZM16 19.5H8V4.5H16V19.5ZM19.5 19.5H17.5V12.5H19.5V19.5ZM11 6H9.5V8.5H11V6ZM13 6H14.5V8.5H13V6ZM11 10H9.5V12.5H11V10ZM13 10H14.5V12.5H13V10ZM11 14H9.5V16.5H11V14ZM13 14H14.5V16.5H13V14Z" fill="#9098A5"/>
<path d="M17.5 3H18V2.5H17.5V3ZM17.5 11H17V11.5H17.5V11ZM6.5 3V2.5H6V3H6.5ZM6.5 8V8.5H7V8H6.5ZM3 8V7.5H2.5V8H3ZM3 21H2.5V21.5H3V21ZM21 21V21.5H21.5V21H21ZM21 11H21.5V10.5H21V11ZM4.5 19.5H4V20H4.5V19.5ZM6.5 19.5V20H7V19.5H6.5ZM4.5 9.5V9H4V9.5H4.5ZM6.5 9.5H7V9H6.5V9.5ZM8 19.5H7.5V20H8V19.5ZM16 19.5V20H16.5V19.5H16ZM8 4.5V4H7.5V4.5H8ZM16 4.5H16.5V4H16V4.5ZM17.5 19.5H17V20H17.5V19.5ZM19.5 19.5V20H20V19.5H19.5ZM17.5 12.5V12H17V12.5H17.5ZM19.5 12.5H20V12H19.5V12.5ZM9.5 6V5.5H9V6H9.5ZM11 6H11.5V5.5H11V6ZM9.5 8.5H9V9H9.5V8.5ZM11 8.5V9H11.5V8.5H11ZM14.5 6H15V5.5H14.5V6ZM13 6V5.5H12.5V6H13ZM14.5 8.5V9H15V8.5H14.5ZM13 8.5H12.5V9H13V8.5ZM9.5 10V9.5H9V10H9.5ZM11 10H11.5V9.5H11V10ZM9.5 12.5H9V13H9.5V12.5ZM11 12.5V13H11.5V12.5H11ZM14.5 10H15V9.5H14.5V10ZM13 10V9.5H12.5V10H13ZM14.5 12.5V13H15V12.5H14.5ZM13 12.5H12.5V13H13V12.5ZM9.5 14V13.5H9V14H9.5ZM11 14H11.5V13.5H11V14ZM9.5 16.5H9V17H9.5V16.5ZM11 16.5V17H11.5V16.5H11ZM14.5 14H15V13.5H14.5V14ZM13 14V13.5H12.5V14H13ZM14.5 16.5V17H15V16.5H14.5ZM13 16.5H12.5V17H13V16.5ZM17 3V11H18V3H17ZM6.5 3.5H17.5V2.5H6.5V3.5ZM7 8V3H6V8H7ZM3 8.5H6.5V7.5H3V8.5ZM3.5 21V8H2.5V21H3.5ZM21 20.5H3V21.5H21V20.5ZM20.5 11V21H21.5V11H20.5ZM17.5 11.5H21V10.5H17.5V11.5ZM4.5 20H6.5V19H4.5V20ZM4 9.5V19.5H5V9.5H4ZM6.5 9H4.5V10H6.5V9ZM7 19.5V9.5H6V19.5H7ZM8 20H16V19H8V20ZM7.5 4.5V19.5H8.5V4.5H7.5ZM16 4H8V5H16V4ZM16.5 19.5V4.5H15.5V19.5H16.5ZM17.5 20H19.5V19H17.5V20ZM17 12.5V19.5H18V12.5H17ZM19.5 12H17.5V13H19.5V12ZM20 19.5V12.5H19V19.5H20ZM9.5 6.5H11V5.5H9.5V6.5ZM10 8.5V6H9V8.5H10ZM11 8H9.5V9H11V8ZM10.5 6V8.5H11.5V6H10.5ZM14.5 5.5H13V6.5H14.5V5.5ZM15 8.5V6H14V8.5H15ZM13 9H14.5V8H13V9ZM12.5 6V8.5H13.5V6H12.5ZM9.5 10.5H11V9.5H9.5V10.5ZM10 12.5V10H9V12.5H10ZM11 12H9.5V13H11V12ZM10.5 10V12.5H11.5V10H10.5ZM14.5 9.5H13V10.5H14.5V9.5ZM15 12.5V10H14V12.5H15ZM13 13H14.5V12H13V13ZM12.5 10V12.5H13.5V10H12.5ZM9.5 14.5H11V13.5H9.5V14.5ZM10 16.5V14H9V16.5H10ZM11 16H9.5V17H11V16ZM10.5 14V16.5H11.5V14H10.5ZM14.5 13.5H13V14.5H14.5V13.5ZM15 16.5V14H14V16.5H15ZM13 17H14.5V16H13V17ZM12.5 14V16.5H13.5V14H12.5Z" fill="#9098A5" mask="url(#path-1-inside-1_0_17686)"/>
</svg>
